<?xml version="1.0" encoding="UTF-8"?>
<svg version="1.1" xmlns="http://www.w3.org/2000/svg" width="220" height="220">
<path d="M0 0 C1.18680862 -0.00846954 2.37361725 -0.01693909 3.59638977 -0.02566528 C6.82407814 -0.04493499 10.05140885 -0.05082078 13.27914405 -0.04891777 C15.98974755 -0.04879718 18.7002984 -0.05739756 21.41088706 -0.06569529 C27.81692994 -0.08486788 34.22284256 -0.08783662 40.62890625 -0.08105469 C47.19782483 -0.07442708 53.76618004 -0.09724015 60.33498448 -0.13436842 C66.00844214 -0.16525105 71.68172037 -0.17640529 77.35526019 -0.1725316 C80.72890113 -0.17048208 84.1017577 -0.17795749 87.47537804 -0.20042419 C109.38385209 -0.33025124 126.24181023 1.41769922 142.9074707 17.04492188 C159.84182034 34.86771911 160.33432278 53.62118145 160.2512207 76.98242188 C160.25392007 79.66415302 160.25780165 82.34586225 160.26281738 85.02758789 C160.27005617 90.62882503 160.26060616 96.22984991 160.24145508 101.83105469 C160.21969339 108.26937532 160.22674747 114.70718894 160.2487607 121.14549732 C160.26702327 126.71372412 160.26942053 132.28179998 160.25900602 137.85004711 C160.25283012 141.15803288 160.25338463 144.46573373 160.26515198 147.77371216 C160.32615518 169.7382007 158.7668288 186.38087738 143.1340332 203.03320312 C130.43685679 215.58656039 117.31480084 220.7248815 99.63525391 220.71044922 C98.44552475 220.71716644 97.25579559 220.72388367 96.03001404 220.73080444 C92.78587642 220.74648304 89.54189298 220.75315579 86.2977221 220.75443602 C84.26399867 220.75586412 82.23030156 220.76014618 80.1965847 220.76543045 C73.08172292 220.7839013 65.96693575 220.79210509 58.85205078 220.79052734 C52.25254897 220.78932794 45.65337523 220.81039811 39.05395633 220.84201467 C33.36190378 220.86829821 27.66995755 220.87888956 21.97784489 220.87761652 C18.58985688 220.87711026 15.20216056 220.88260445 11.81423378 220.90397263 C8.02643778 220.9237145 4.23947142 220.9177611 0.45166016 220.90576172 C-0.64852448 220.91700073 -1.74870911 220.92823975 -2.88223267 220.93981934 C-20.08375656 220.8023438 -33.41022619 213.44958765 -45.2800293 201.41992188 C-56.3069342 189.19164212 -60.75205229 175.48962004 -60.68408203 159.1940918 C-60.69094528 158.02503799 -60.69780853 156.85598419 -60.70487976 155.65150452 C-60.72306076 151.8176735 -60.71932199 147.98425518 -60.71362305 144.15039062 C-60.71703342 142.14436394 -60.72045315 140.13833708 -60.72497612 138.1323126 C-60.73896828 131.83319943 -60.73750561 125.53422203 -60.72607422 119.23510742 C-60.71460792 112.77471214 -60.72865541 106.31473273 -60.75547069 99.85439223 C-60.7777532 94.27350134 -60.78423679 88.69273978 -60.77839428 83.11180764 C-60.77505206 79.79369807 -60.77900729 76.47591015 -60.79464531 73.15782738 C-60.88404039 51.07948305 -59.32474861 34.48310067 -43.6315918 17.74023438 C-31.27721591 5.55003624 -17.24442983 -0.04594347 0 0 Z " fill="#000000" transform="translate(60.280029296875,-0.419921875)"/>
<path d="M0 0 C1.18680862 -0.00846954 2.37361725 -0.01693909 3.59638977 -0.02566528 C6.82407814 -0.04493499 10.05140885 -0.05082078 13.27914405 -0.04891777 C15.98974755 -0.04879718 18.7002984 -0.05739756 21.41088706 -0.06569529 C27.81692994 -0.08486788 34.22284256 -0.08783662 40.62890625 -0.08105469 C47.19782483 -0.07442708 53.76618004 -0.09724015 60.33498448 -0.13436842 C66.00844214 -0.16525105 71.68172037 -0.17640529 77.35526019 -0.1725316 C80.72890113 -0.17048208 84.1017577 -0.17795749 87.47537804 -0.20042419 C109.38385209 -0.33025124 126.24181023 1.41769922 142.9074707 17.04492188 C159.84182034 34.86771911 160.33432278 53.62118145 160.2512207 76.98242188 C160.25392007 79.66415302 160.25780165 82.34586225 160.26281738 85.02758789 C160.27005617 90.62882503 160.26060616 96.22984991 160.24145508 101.83105469 C160.21969339 108.26937532 160.22674747 114.70718894 160.2487607 121.14549732 C160.26702327 126.71372412 160.26942053 132.28179998 160.25900602 137.85004711 C160.25283012 141.15803288 160.25338463 144.46573373 160.26515198 147.77371216 C160.32615518 169.7382007 158.7668288 186.38087738 143.1340332 203.03320312 C130.43685679 215.58656039 117.31480084 220.7248815 99.63525391 220.71044922 C98.44552475 220.71716644 97.25579559 220.72388367 96.03001404 220.73080444 C92.78587642 220.74648304 89.54189298 220.75315579 86.2977221 220.75443602 C84.26399867 220.75586412 82.23030156 220.76014618 80.1965847 220.76543045 C73.08172292 220.7839013 65.96693575 220.79210509 58.85205078 220.79052734 C52.25254897 220.78932794 45.65337523 220.81039811 39.05395633 220.84201467 C33.36190378 220.86829821 27.66995755 220.87888956 21.97784489 220.87761652 C18.58985688 220.87711026 15.20216056 220.88260445 11.81423378 220.90397263 C8.02643778 220.9237145 4.23947142 220.9177611 0.45166016 220.90576172 C-0.64852448 220.91700073 -1.74870911 220.92823975 -2.88223267 220.93981934 C-20.08375656 220.8023438 -33.41022619 213.44958765 -45.2800293 201.41992188 C-56.3069342 189.19164212 -60.75205229 175.48962004 -60.68408203 159.1940918 C-60.69094528 158.02503799 -60.69780853 156.85598419 -60.70487976 155.65150452 C-60.72306076 151.8176735 -60.71932199 147.98425518 -60.71362305 144.15039062 C-60.71703342 142.14436394 -60.72045315 140.13833708 -60.72497612 138.1323126 C-60.73896828 131.83319943 -60.73750561 125.53422203 -60.72607422 119.23510742 C-60.71460792 112.77471214 -60.72865541 106.31473273 -60.75547069 99.85439223 C-60.7777532 94.27350134 -60.78423679 88.69273978 -60.77839428 83.11180764 C-60.77505206 79.79369807 -60.77900729 76.47591015 -60.79464531 73.15782738 C-60.88404039 51.07948305 -59.32474861 34.48310067 -43.6315918 17.74023438 C-31.27721591 5.55003624 -17.24442983 -0.04594347 0 0 Z M-40.2800293 26.41992188 C-49.63118423 37.91551459 -52.59025332 49.15464246 -52.5546875 63.70019531 C-52.55979843 64.79253479 -52.56490936 65.88487427 -52.57017517 67.01031494 C-52.58400698 70.60003227 -52.58311891 74.18955616 -52.58081055 77.77929688 C-52.58470154 80.29119945 -52.58903704 82.80310136 -52.59379578 85.31500244 C-52.60124464 90.57362494 -52.60111639 95.83219799 -52.59570312 101.09082031 C-52.5903393 106.46979967 -52.597356 111.8485905 -52.61621094 117.22753906 C-52.63876751 123.74780459 -52.64644916 130.26791326 -52.64253807 136.78821564 C-52.64304878 139.26154375 -52.648239 141.73487579 -52.65834999 144.20818329 C-52.73356871 165.18375946 -51.92088347 182.15807971 -36.6784668 198.13476562 C-20.87513127 213.19168954 -3.33546329 213.17020446 17.3215332 213.04882812 C19.89212138 213.04965841 22.4627095 213.05212378 25.03329468 213.05613708 C30.39745654 213.05898228 35.76116509 213.04495915 41.12524414 213.0168457 C47.2915385 212.98477321 53.45720013 212.98483115 59.62353957 213.00206047 C65.60423587 213.01802258 71.58464242 213.01102922 77.56534958 212.99412346 C80.08890649 212.98897195 82.61248157 212.98938624 85.13603592 212.99566841 C106.49845218 213.02890142 122.26711502 210.99218652 138.4621582 195.83789062 C149.23946603 184.29610249 151.86452337 170.51610312 151.88110352 155.33496094 C151.88606842 154.23970093 151.89103333 153.14444092 151.89614868 152.01599121 C151.91070958 148.40583662 151.91756204 144.79572596 151.9230957 141.18554688 C151.92885195 138.66599528 151.93460963 136.14644368 151.94036865 133.62689209 C151.94952248 129.02148234 151.95582991 124.41608508 151.9588654 119.81066728 C151.9633413 113.05967881 151.98087722 106.30889328 152.009866 99.55796647 C152.03419703 93.68522086 152.04181496 87.81254224 152.04354095 81.93975067 C152.04655725 79.4535995 152.05455099 76.96744897 152.06772614 74.48133087 C152.08488449 70.99488672 152.08288235 67.5089308 152.07641602 64.02246094 C152.09023819 62.49930267 152.09023819 62.49930267 152.1043396 60.94537354 C152.01524339 45.51964597 146.33412027 33.05303747 135.6184082 22.12304688 C123.79461267 11.09600306 110.14855487 8.27567821 94.54321289 8.25878906 C93.43819931 8.25382416 92.33318573 8.24885925 91.19468689 8.2437439 C87.55206674 8.22918194 83.90949013 8.22233037 80.2668457 8.21679688 C77.72487386 8.21104072 75.18290201 8.20528304 72.64093018 8.19952393 C67.99447035 8.19036988 63.34802348 8.18406257 58.70155692 8.18102717 C51.89000869 8.17655119 45.0786616 8.15901498 38.26717448 8.13002658 C32.34211102 8.10569719 26.41709696 8.09807769 20.49198151 8.09635162 C17.98350174 8.0933351 15.47502261 8.08534058 12.96657562 8.07216644 C9.44899979 8.05501026 5.93190795 8.05700971 2.41430664 8.06347656 C0.87712227 8.04965439 0.87712227 8.04965439 -0.69111633 8.03555298 C-16.97012366 8.12876418 -29.13791534 14.79174254 -40.2800293 26.41992188 Z " fill="#FDFDFD" transform="translate(60.280029296875,-0.419921875)"/>
<path d="M0 0 C2.97 0 5.94 0 9 0 C9.00586624 0.81130875 9.01173248 1.62261749 9.01777649 2.45851135 C9.0758043 10.12364688 9.14793825 17.78846109 9.23571491 25.45330906 C9.28034426 29.39341224 9.31961638 33.33341379 9.34643555 37.27368164 C9.37254327 41.07994894 9.41299744 44.8858236 9.46318626 48.69184685 C9.47980474 50.14016759 9.49135018 51.58855616 9.49761391 53.03695869 C9.54285525 62.54109017 9.71833108 70.22096892 16.4453125 77.64453125 C22.44116095 82.87206746 29.12424978 83.59067679 36.84765625 83.3203125 C44.22835528 82.570353 49.78485821 80.45770652 55 75 C59.91133916 67.59583532 59.60442597 60.14681741 59.609375 51.5625 C59.62437575 50.07175924 59.64110685 48.58103498 59.65948486 47.09033203 C59.7029588 43.19088935 59.72311269 39.29167078 59.73822021 35.39202881 C59.75786387 31.40314593 59.79982539 27.41450255 59.83984375 23.42578125 C59.91492922 15.6172522 59.96535112 7.80882437 60 0 C62.97 0 65.94 0 69 0 C69.0932449 8.13725638 69.16403796 16.27428443 69.20724869 24.41194534 C69.22800211 28.19181627 69.25609088 31.97131802 69.30175781 35.75097656 C69.34565913 39.40796209 69.36922881 43.06459565 69.37950897 46.72182465 C69.38682192 48.10750611 69.40109905 49.49317132 69.42292023 50.87870026 C69.58665773 61.71992236 68.7439526 71.89418252 61.5625 80.5 C60.39522052 81.68689762 59.20995992 82.85664338 58 84 C57.278125 84.7425 56.55625 85.485 55.8125 86.25 C46.43488501 92.08496044 36.04630186 93.39484602 25.2734375 91.52734375 C16.09816259 89.15540736 9.3930407 84.50843197 4.2890625 76.5390625 C-0.12351266 67.84762658 -0.40082454 60.3549098 -0.29296875 50.78125 C-0.28736451 49.31295203 -0.28309833 47.84464839 -0.28010559 46.37634277 C-0.26872184 42.53593099 -0.23931166 38.69586658 -0.20599365 34.85559082 C-0.17515211 30.92721249 -0.16157034 26.99877733 -0.14648438 23.0703125 C-0.11443467 15.380051 -0.0633182 7.69007441 0 0 Z " fill="#ECECEC" transform="translate(60,65)"/>
<path d="M0 0 C2.97 0 5.94 0 9 0 C9 29.7 9 59.4 9 90 C6.03 90 3.06 90 0 90 C0 60.3 0 30.6 0 0 Z " fill="#E9E9E9" transform="translate(152,65)"/>
</svg>
